<mxfile host="65bd71144e">
    <diagram id="pEpczGXfkdmbMpyy5be4" name="Seite-1">
        <mxGraphModel dx="977" dy="749" grid="1" gridSize="10" guides="1" tooltips="1" connect="1" arrows="1" fold="1" page="1" pageScale="1" pageWidth="827" pageHeight="1169" math="0" shadow="0">
            <root>
                <mxCell id="0"/>
                <mxCell id="1" parent="0"/>
                <mxCell id="yKYWkn6R5dtNz7ZGUFeH-2" value="" style="verticalLabelPosition=bottom;verticalAlign=top;html=1;shape=mxgraph.basic.rect;fillColor2=none;strokeWidth=1;size=20;indent=5;" parent="1" vertex="1">
                    <mxGeometry x="10" y="140" width="970" height="730" as="geometry"/>
                </mxCell>
                <mxCell id="yKYWkn6R5dtNz7ZGUFeH-3" value="" style="verticalLabelPosition=bottom;verticalAlign=top;html=1;shape=mxgraph.basic.rect;fillColor2=none;strokeWidth=1;size=20;indent=5;" parent="1" vertex="1">
                    <mxGeometry x="510" y="100" width="120" height="60" as="geometry"/>
                </mxCell>
                <mxCell id="yKYWkn6R5dtNz7ZGUFeH-4" value="&lt;div&gt;VPC&lt;/div&gt;&lt;div&gt;CIDR: 10.0.0.0/16&lt;br&gt;&lt;/div&gt;" style="text;html=1;strokeColor=none;fillColor=none;align=center;verticalAlign=middle;whiteSpace=wrap;rounded=0;" parent="1" vertex="1">
                    <mxGeometry x="860" y="90" width="140" height="30" as="geometry"/>
                </mxCell>
                <mxCell id="yKYWkn6R5dtNz7ZGUFeH-5" value="Internet Gateway" style="text;html=1;strokeColor=none;fillColor=none;align=center;verticalAlign=middle;whiteSpace=wrap;rounded=0;" parent="1" vertex="1">
                    <mxGeometry x="500" y="70" width="140" height="30" as="geometry"/>
                </mxCell>
                <mxCell id="yKYWkn6R5dtNz7ZGUFeH-6" value="" style="verticalLabelPosition=bottom;verticalAlign=top;html=1;shape=mxgraph.basic.rect;fillColor2=none;strokeWidth=1;size=20;indent=5;" parent="1" vertex="1">
                    <mxGeometry x="480" y="360" width="360" height="170" as="geometry"/>
                </mxCell>
                <mxCell id="yKYWkn6R5dtNz7ZGUFeH-7" value="" style="verticalLabelPosition=bottom;verticalAlign=top;html=1;shape=mxgraph.basic.rect;fillColor2=none;strokeWidth=1;size=20;indent=5;" parent="1" vertex="1">
                    <mxGeometry x="480" y="600" width="360" height="150" as="geometry"/>
                </mxCell>
                <mxCell id="yKYWkn6R5dtNz7ZGUFeH-8" value="&lt;div&gt;Public Subnet&lt;/div&gt;&lt;div&gt;10.0.1.0/24&lt;/div&gt;" style="text;html=1;strokeColor=none;fillColor=none;align=center;verticalAlign=middle;whiteSpace=wrap;rounded=0;" parent="1" vertex="1">
                    <mxGeometry x="580" y="360" width="160" height="40" as="geometry"/>
                </mxCell>
                <mxCell id="yKYWkn6R5dtNz7ZGUFeH-9" value="&lt;div&gt;Private Subnet&lt;/div&gt;&lt;div&gt;10.0.101/24&lt;br&gt;&lt;/div&gt;" style="text;html=1;strokeColor=none;fillColor=none;align=center;verticalAlign=middle;whiteSpace=wrap;rounded=0;" parent="1" vertex="1">
                    <mxGeometry x="600" y="600" width="125" height="40" as="geometry"/>
                </mxCell>
                <mxCell id="yKYWkn6R5dtNz7ZGUFeH-10" value="" style="verticalLabelPosition=bottom;verticalAlign=top;html=1;shape=mxgraph.basic.rect;fillColor2=none;strokeWidth=1;size=20;indent=5;" parent="1" vertex="1">
                    <mxGeometry x="540" y="410" width="100" height="70" as="geometry"/>
                </mxCell>
                <mxCell id="yKYWkn6R5dtNz7ZGUFeH-11" value="&lt;div&gt;Nat Gateway&lt;/div&gt;&lt;div&gt;Elastic-ip&lt;br&gt;&lt;/div&gt;" style="text;html=1;strokeColor=none;fillColor=none;align=center;verticalAlign=middle;whiteSpace=wrap;rounded=0;" parent="1" vertex="1">
                    <mxGeometry x="545" y="425" width="90" height="40" as="geometry"/>
                </mxCell>
                <mxCell id="yKYWkn6R5dtNz7ZGUFeH-12" value="" style="verticalLabelPosition=bottom;verticalAlign=top;html=1;shape=mxgraph.basic.rect;fillColor2=none;strokeWidth=1;size=20;indent=5;" parent="1" vertex="1">
                    <mxGeometry x="60" y="260" width="220" height="70" as="geometry"/>
                </mxCell>
                <mxCell id="yKYWkn6R5dtNz7ZGUFeH-13" value="my-public-route-table" style="text;html=1;strokeColor=none;fillColor=none;align=center;verticalAlign=middle;whiteSpace=wrap;rounded=0;" parent="1" vertex="1">
                    <mxGeometry x="80" y="230" width="190" height="30" as="geometry"/>
                </mxCell>
                <mxCell id="yKYWkn6R5dtNz7ZGUFeH-14" value="&lt;div&gt;0.0.0.0/0&amp;nbsp;&amp;nbsp;&amp;nbsp;&amp;nbsp;&amp;nbsp; - internet-gateway&lt;/div&gt;&lt;div&gt;10.0.0.0/16&amp;nbsp; -&amp;nbsp; local&amp;nbsp;&amp;nbsp;&amp;nbsp;&amp;nbsp;&amp;nbsp;&amp;nbsp;&amp;nbsp;&amp;nbsp;&amp;nbsp;&amp;nbsp;&amp;nbsp;&amp;nbsp;&amp;nbsp;&amp;nbsp;&amp;nbsp;&amp;nbsp;&amp;nbsp;&amp;nbsp; &lt;br&gt;&lt;/div&gt;" style="text;html=1;strokeColor=none;fillColor=none;align=center;verticalAlign=middle;whiteSpace=wrap;rounded=0;" parent="1" vertex="1">
                    <mxGeometry x="80" y="270" width="210" height="50" as="geometry"/>
                </mxCell>
                <mxCell id="yKYWkn6R5dtNz7ZGUFeH-17" value="" style="verticalLabelPosition=bottom;verticalAlign=top;html=1;shape=mxgraph.basic.rect;fillColor2=none;strokeWidth=1;size=20;indent=5;" parent="1" vertex="1">
                    <mxGeometry x="50" y="560" width="220" height="70" as="geometry"/>
                </mxCell>
                <mxCell id="yKYWkn6R5dtNz7ZGUFeH-18" value="my-private-route-table" style="text;html=1;strokeColor=none;fillColor=none;align=center;verticalAlign=middle;whiteSpace=wrap;rounded=0;" parent="1" vertex="1">
                    <mxGeometry x="101" y="530" width="120" height="30" as="geometry"/>
                </mxCell>
                <mxCell id="yKYWkn6R5dtNz7ZGUFeH-20" value="&lt;div&gt;0.0.0.0/0&amp;nbsp;&amp;nbsp;&amp;nbsp; -&amp;nbsp; nat-gateway 10.0.0.0/16 -&amp;nbsp; local&amp;nbsp;&amp;nbsp;&amp;nbsp; &amp;nbsp; &amp;nbsp; &amp;nbsp;&amp;nbsp;&amp;nbsp;&amp;nbsp;&amp;nbsp;&amp;nbsp; &lt;br&gt;&lt;/div&gt;" style="text;html=1;strokeColor=none;fillColor=none;align=center;verticalAlign=middle;whiteSpace=wrap;rounded=0;" parent="1" vertex="1">
                    <mxGeometry x="101" y="560" width="159" height="50" as="geometry"/>
                </mxCell>
                <mxCell id="yKYWkn6R5dtNz7ZGUFeH-26" value="" style="endArrow=classic;startArrow=classic;html=1;rounded=0;exitX=0.895;exitY=0.04;exitDx=0;exitDy=0;exitPerimeter=0;entryX=-0.025;entryY=0.65;entryDx=0;entryDy=0;entryPerimeter=0;" parent="1" source="yKYWkn6R5dtNz7ZGUFeH-14" target="yKYWkn6R5dtNz7ZGUFeH-3" edge="1">
                    <mxGeometry width="50" height="50" relative="1" as="geometry">
                        <mxPoint x="450" y="480" as="sourcePoint"/>
                        <mxPoint x="500" y="430" as="targetPoint"/>
                    </mxGeometry>
                </mxCell>
                <mxCell id="yKYWkn6R5dtNz7ZGUFeH-27" value="" style="endArrow=classic;startArrow=classic;html=1;rounded=0;exitX=0.952;exitY=0.4;exitDx=0;exitDy=0;exitPerimeter=0;entryX=0.05;entryY=1.017;entryDx=0;entryDy=0;entryPerimeter=0;" parent="1" source="yKYWkn6R5dtNz7ZGUFeH-14" target="yKYWkn6R5dtNz7ZGUFeH-3" edge="1">
                    <mxGeometry width="50" height="50" relative="1" as="geometry">
                        <mxPoint x="450" y="480" as="sourcePoint"/>
                        <mxPoint x="500" y="430" as="targetPoint"/>
                    </mxGeometry>
                </mxCell>
                <mxCell id="yKYWkn6R5dtNz7ZGUFeH-28" value="" style="endArrow=classic;startArrow=classic;html=1;rounded=0;exitX=0.571;exitY=1;exitDx=0;exitDy=0;exitPerimeter=0;" parent="1" source="yKYWkn6R5dtNz7ZGUFeH-14" edge="1">
                    <mxGeometry width="50" height="50" relative="1" as="geometry">
                        <mxPoint x="450" y="480" as="sourcePoint"/>
                        <mxPoint x="510" y="420" as="targetPoint"/>
                    </mxGeometry>
                </mxCell>
                <mxCell id="yKYWkn6R5dtNz7ZGUFeH-29" value="" style="endArrow=classic;startArrow=classic;html=1;rounded=0;entryX=0.111;entryY=0.176;entryDx=0;entryDy=0;entryPerimeter=0;" parent="1" target="yKYWkn6R5dtNz7ZGUFeH-6" edge="1">
                    <mxGeometry width="50" height="50" relative="1" as="geometry">
                        <mxPoint x="210" y="300" as="sourcePoint"/>
                        <mxPoint x="500" y="430" as="targetPoint"/>
                    </mxGeometry>
                </mxCell>
                <mxCell id="yKYWkn6R5dtNz7ZGUFeH-30" value="" style="endArrow=classic;startArrow=classic;html=1;rounded=0;" parent="1" edge="1">
                    <mxGeometry width="50" height="50" relative="1" as="geometry">
                        <mxPoint x="210" y="610" as="sourcePoint"/>
                        <mxPoint x="560" y="670" as="targetPoint"/>
                    </mxGeometry>
                </mxCell>
                <mxCell id="yKYWkn6R5dtNz7ZGUFeH-31" value="" style="endArrow=classic;startArrow=classic;html=1;rounded=0;" parent="1" edge="1">
                    <mxGeometry width="50" height="50" relative="1" as="geometry">
                        <mxPoint x="220" y="590" as="sourcePoint"/>
                        <mxPoint x="560" y="650" as="targetPoint"/>
                    </mxGeometry>
                </mxCell>
                <mxCell id="yKYWkn6R5dtNz7ZGUFeH-32" value="" style="endArrow=classic;startArrow=classic;html=1;rounded=0;entryX=0.083;entryY=0.647;entryDx=0;entryDy=0;entryPerimeter=0;" parent="1" target="yKYWkn6R5dtNz7ZGUFeH-6" edge="1">
                    <mxGeometry width="50" height="50" relative="1" as="geometry">
                        <mxPoint x="250" y="570" as="sourcePoint"/>
                        <mxPoint x="500" y="430" as="targetPoint"/>
                    </mxGeometry>
                </mxCell>
                <mxCell id="yKYWkn6R5dtNz7ZGUFeH-33" value="" style="endArrow=classic;startArrow=classic;html=1;rounded=0;exitX=1;exitY=0.5;exitDx=0;exitDy=0;entryX=0.083;entryY=0.765;entryDx=0;entryDy=0;entryPerimeter=0;" parent="1" source="yKYWkn6R5dtNz7ZGUFeH-20" target="yKYWkn6R5dtNz7ZGUFeH-6" edge="1">
                    <mxGeometry width="50" height="50" relative="1" as="geometry">
                        <mxPoint x="450" y="480" as="sourcePoint"/>
                        <mxPoint x="500" y="430" as="targetPoint"/>
                    </mxGeometry>
                </mxCell>
                <mxCell id="yKYWkn6R5dtNz7ZGUFeH-34" value="Application" style="ellipse;whiteSpace=wrap;html=1;" parent="1" vertex="1">
                    <mxGeometry x="570" y="645" width="110" height="60" as="geometry"/>
                </mxCell>
                <mxCell id="yKYWkn6R5dtNz7ZGUFeH-35" value="&lt;font style=&quot;font-size: 14px;&quot;&gt;Note: Just think &quot;Route-Table&quot; as a pipeline, as i have draw these two arrows in every directions, it is like a pipeline, and all the traffic flow inside this pipeline, call to &quot;Elastic-ip&quot; of Nat-Gateway. or any other &quot;Public-ip&quot; all call goes through &quot;Internet-Gateway&quot; inside these pipelines&lt;/font&gt;" style="text;html=1;strokeColor=none;fillColor=none;align=center;verticalAlign=middle;whiteSpace=wrap;rounded=0;" parent="1" vertex="1">
                    <mxGeometry x="41" y="40" width="419" height="20" as="geometry"/>
                </mxCell>
                <mxCell id="yKYWkn6R5dtNz7ZGUFeH-37" value="Elastic-ip&amp;nbsp;&amp;nbsp; or any other Public-ip" style="text;html=1;strokeColor=none;fillColor=none;align=center;verticalAlign=middle;whiteSpace=wrap;rounded=0;fontSize=14;rotation=-30;" parent="1" vertex="1">
                    <mxGeometry x="272.5" y="199.33" width="230" height="40" as="geometry"/>
                </mxCell>
                <mxCell id="yKYWkn6R5dtNz7ZGUFeH-39" value="Elastc-ip&amp;nbsp; of any other private-ip" style="text;html=1;strokeColor=none;fillColor=none;align=center;verticalAlign=middle;whiteSpace=wrap;rounded=0;fontSize=14;rotation=15;" parent="1" vertex="1">
                    <mxGeometry x="251.29" y="340.17" width="240" height="40" as="geometry"/>
                </mxCell>
                <mxCell id="yKYWkn6R5dtNz7ZGUFeH-40" value="Ip-address of the application" style="text;html=1;strokeColor=none;fillColor=none;align=center;verticalAlign=middle;whiteSpace=wrap;rounded=0;fontSize=14;rotation=-15;" parent="1" vertex="1">
                    <mxGeometry x="299.32" y="534.83" width="180" height="40" as="geometry"/>
                </mxCell>
                <mxCell id="2" value="This diagram is from &quot;Kalyan Terraform course&lt;br&gt;Section-6 lecture-43&lt;br&gt;Build VPC Manually using AWS Management" style="text;html=1;align=center;verticalAlign=middle;resizable=0;points=[];autosize=1;strokeColor=none;fillColor=none;" parent="1" vertex="1">
                    <mxGeometry x="620" y="5" width="260" height="50" as="geometry"/>
                </mxCell>
            </root>
        </mxGraphModel>
    </diagram>
</mxfile>